<svg width="106" height="29" viewBox="0 0 106 29" fill="none" xmlns="http://www.w3.org/2000/svg">
<g clip-path="url(#clip0)">
<path fill-rule="evenodd" clip-rule="evenodd" d="M18.7191 13.1264V15.9052C18.4419 15.9467 18.1778 16.0474 17.9462 16.1998C17.7146 16.3523 17.5214 16.5527 17.3807 16.7864C17.2399 17.0201 17.1552 17.2811 17.1328 17.5504C17.1104 17.8197 17.1509 18.0904 17.2512 18.3426L14.7726 19.7153C14.5965 19.5031 14.3731 19.3318 14.1189 19.214C13.8647 19.0963 13.5862 19.0352 13.3042 19.0352C13.0221 19.0352 12.7436 19.0963 12.4894 19.214C12.2353 19.3318 12.0118 19.5031 11.8358 19.7153L9.3477 18.3389C9.51729 17.9127 9.51354 17.4406 9.33718 17.0169C9.16083 16.5933 8.82488 16.2494 8.39652 16.054C7.96817 15.8585 7.47899 15.826 7.02682 15.963C6.57465 16.0999 6.19282 16.3961 5.95771 16.7924C5.7226 17.1887 5.65153 17.6558 5.75873 18.1004C5.86592 18.545 6.14347 18.9342 6.53586 19.1902C6.92826 19.4463 7.40657 19.5502 7.87513 19.4813C8.3437 19.4124 8.76797 19.1757 9.0631 18.8186L11.5502 20.1947C11.4408 20.4687 11.4024 20.7643 11.4381 21.0559C11.4739 21.3474 11.5828 21.6262 11.7555 21.8682C11.9282 22.1102 12.1594 22.3081 12.4292 22.4449C12.6991 22.5816 12.9994 22.653 13.3043 22.653C13.6093 22.653 13.9096 22.5816 14.1794 22.4449C14.4493 22.3081 14.6805 22.1102 14.8532 21.8682C15.0258 21.6262 15.1348 21.3474 15.1705 21.0559C15.2063 20.7643 15.1678 20.4687 15.0585 20.1947L17.5364 18.8223C17.727 19.0528 17.9731 19.2349 18.2533 19.353C18.5336 19.4711 18.8396 19.5215 19.1447 19.4999C19.4498 19.4783 19.7448 19.3853 20.0041 19.229C20.2634 19.0728 20.4791 18.8579 20.6326 18.6031C20.7861 18.3483 20.8727 18.0612 20.8848 17.7669C20.8969 17.4726 20.8343 17.1798 20.7023 16.9141C20.5702 16.6484 20.3729 16.4177 20.1272 16.2421C19.8816 16.0665 19.5952 15.9513 19.2928 15.9065V13.1277C19.7362 13.0616 20.1403 12.8449 20.4323 12.517C20.7242 12.189 20.8847 11.7713 20.8847 11.3393C20.8847 10.9073 20.7242 10.4896 20.4323 10.1616C20.1403 9.83365 19.7362 9.61703 19.2928 9.55092V6.77179C19.5947 6.7269 19.8807 6.61183 20.1259 6.43656C20.3712 6.26129 20.5684 6.03109 20.7005 5.7659C20.8325 5.5007 20.8955 5.20851 20.8838 4.91463C20.8722 4.62074 20.7863 4.33401 20.6336 4.07928C20.481 3.82455 20.2661 3.60948 20.0077 3.45271C19.7493 3.29594 19.455 3.20219 19.1505 3.17957C18.846 3.15696 18.5403 3.20617 18.26 3.32293C17.9796 3.4397 17.7331 3.6205 17.5416 3.84968L15.0565 2.46702C15.2283 2.042 15.2271 1.57021 15.0532 1.14598C14.8793 0.721761 14.5455 0.376384 14.1186 0.178927C13.6916 -0.018531 13.203 -0.053512 12.7504 0.0809771C12.2978 0.215466 11.9146 0.509509 11.6774 0.904305C11.4403 1.2991 11.3667 1.76555 11.4713 2.21035C11.576 2.65515 11.8511 3.04553 12.2418 3.3034C12.6325 3.56127 13.1099 3.66763 13.5785 3.60121C14.0471 3.53479 14.4724 3.30048 14.7693 2.94515L17.2541 4.32782C17.1524 4.58026 17.1107 4.85146 17.1323 5.12145C17.1538 5.39144 17.238 5.65333 17.3786 5.88784C17.5192 6.12236 17.7127 6.32351 17.9447 6.47649C18.1768 6.62947 18.4415 6.73038 18.7194 6.77179V9.55092C18.2761 9.61703 17.8719 9.83365 17.58 10.1616C17.288 10.4896 17.1276 10.9073 17.1276 11.3393C17.1276 11.7713 17.288 12.189 17.58 12.517C17.8719 12.8449 18.2761 13.0616 18.7194 13.1277L18.7191 13.1264ZM2.16611 12.7223C2.60931 12.7886 3.01327 13.0053 3.30505 13.3333C3.59683 13.6613 3.7572 14.079 3.7572 14.5108C3.7572 14.9427 3.59683 15.3603 3.30505 15.6883C3.01327 16.0163 2.60931 16.233 2.16611 16.2993V19.0779C2.24529 19.0895 2.3236 19.106 2.40056 19.1274C2.8457 19.251 3.22777 19.5285 3.47345 19.9067C3.71913 20.2849 3.81111 20.7371 3.73176 21.1766C3.6524 21.6161 3.40729 22.0119 3.04346 22.288C2.67962 22.5642 2.22269 22.7012 1.76035 22.6729C1.298 22.6446 0.862803 22.4529 0.538258 22.1345C0.213712 21.8162 0.0226818 21.3937 0.00181861 20.9481C-0.0190445 20.5024 0.13173 20.0651 0.425212 19.7199C0.718695 19.3748 1.13421 19.1461 1.59204 19.0779V16.299C1.14848 16.2331 0.744058 16.0166 0.451901 15.6886C0.159745 15.3605 -0.000854492 14.9426 -0.000854492 14.5105C-0.000854492 14.0784 0.159745 13.6605 0.451901 13.3324C0.744058 13.0044 1.14848 12.7879 1.59204 12.722V9.94315C1.29001 9.89826 1.00391 9.78313 0.758516 9.60775C0.513126 9.43237 0.315856 9.20201 0.183796 8.93665C0.0517358 8.67128 -0.01113 8.37892 0.000648508 8.08488C0.012427 7.79084 0.0984927 7.50401 0.251389 7.24923C0.404285 6.99444 0.619399 6.7794 0.87809 6.62274C1.13678 6.46607 1.43124 6.37251 1.73596 6.35016C2.04069 6.32781 2.34647 6.37734 2.62683 6.49446C2.90718 6.61158 3.15364 6.79276 3.34486 7.0223L5.83945 5.63618C5.72922 5.36192 5.69008 5.06593 5.72542 4.77382C5.76075 4.48172 5.8695 4.20231 6.04224 3.95979C6.21499 3.71727 6.44652 3.51895 6.71679 3.38199C6.98707 3.24503 7.28794 3.17357 7.59336 3.17378C7.89878 3.174 8.19954 3.2459 8.4696 3.38324C8.73967 3.52059 8.97089 3.71924 9.14326 3.96201C9.31563 4.20478 9.42394 4.48435 9.45883 4.7765C9.49371 5.06865 9.45411 5.36459 9.34346 5.63869L11.8416 7.02982C12.1378 6.67785 12.5609 6.44644 13.0266 6.38185C13.4922 6.31726 13.966 6.42423 14.3533 6.6814C14.7406 6.93856 15.0128 7.32698 15.1156 7.76902C15.2184 8.21105 15.1441 8.67415 14.9076 9.06576C14.6712 9.45737 14.29 9.74864 13.8402 9.88136C13.3904 10.0141 12.9051 9.97848 12.4814 9.78167C12.0577 9.58486 11.7267 9.24133 11.5546 8.81975C11.3825 8.39817 11.382 7.92958 11.5531 7.50764L9.05562 6.11682C8.87935 6.32783 8.65614 6.49805 8.40246 6.61495C8.14878 6.73185 7.87109 6.79244 7.58985 6.79226C7.30861 6.79208 7.031 6.73113 6.77748 6.61391C6.52396 6.49668 6.301 6.32617 6.12502 6.11494L3.63043 7.50074C3.73181 7.75311 3.77316 8.02414 3.75144 8.29391C3.72971 8.56368 3.64547 8.82534 3.50491 9.05964C3.36434 9.29394 3.17103 9.49492 2.93917 9.64782C2.70732 9.80071 2.44282 9.90163 2.16513 9.94315V12.722L2.16611 12.7223ZM13.3043 12.7119C13.7054 12.7123 14.0958 12.8364 14.4183 13.066C14.7409 13.2955 14.9785 13.6185 15.0965 13.9876C15.2145 14.3567 15.2067 14.7525 15.0741 15.117C14.9415 15.4815 14.6911 15.7955 14.3597 16.013C14.0283 16.2305 13.6332 16.3401 13.2324 16.3257C12.8316 16.3113 12.4461 16.1737 12.1325 15.933C11.8188 15.6923 11.5935 15.3612 11.4894 14.9882C11.3854 14.6153 11.4082 14.22 11.5544 13.8604L9.06018 12.4843C8.76219 12.8373 8.33679 13.069 7.86905 13.1331C7.40131 13.1971 6.9257 13.0889 6.5373 12.8299C6.1489 12.5709 5.87634 12.1802 5.77413 11.7361C5.67191 11.292 5.74757 10.8271 5.98597 10.4343C6.22438 10.0416 6.60795 9.74995 7.06002 9.61775C7.51208 9.48556 7.9993 9.52253 8.42427 9.72128C8.84925 9.92003 9.18064 10.2659 9.35221 10.6898C9.52377 11.1136 9.52286 11.5842 9.34965 12.0074L11.8436 13.3829C12.0197 13.1732 12.2422 13.0041 12.495 12.888C12.7477 12.7719 13.0243 12.7118 13.3043 12.7119V12.7119ZM19.0063 22.2085C19.2877 22.2083 19.5655 22.269 19.8191 22.3863C20.0728 22.5035 20.2958 22.6742 20.4716 22.8857L22.9499 21.5061C22.8512 21.2542 22.8121 20.9842 22.8354 20.7159C22.8587 20.4475 22.944 20.1876 23.0848 19.955C23.2257 19.7223 23.4187 19.5229 23.6497 19.3712C23.8808 19.2194 24.1441 19.1192 24.4204 19.0779V16.299C23.9772 16.2327 23.5732 16.016 23.2815 15.688C22.9897 15.36 22.8293 14.9424 22.8293 14.5105C22.8293 14.0786 22.9897 13.661 23.2815 13.333C23.5732 13.005 23.9772 12.7883 24.4204 12.722V9.94283C23.9524 9.8732 23.529 9.63602 23.2347 9.27874C22.9405 8.92145 22.7972 8.4704 22.8335 8.01577C22.8697 7.56114 23.0829 7.13644 23.4303 6.82662C23.7778 6.51679 24.2339 6.34467 24.7074 6.34467C25.181 6.34467 25.6371 6.51679 25.9845 6.82662C26.332 7.13644 26.5451 7.56114 26.5814 8.01577C26.6177 8.4704 26.4744 8.92145 26.1802 9.27874C25.8859 9.63602 25.4625 9.8732 24.9945 9.94283V12.722C25.438 12.7879 25.8425 13.0044 26.1346 13.3324C26.4268 13.6605 26.5874 14.0784 26.5874 14.5105C26.5874 14.9426 26.4268 15.3605 26.1346 15.6886C25.8425 16.0166 25.438 16.2331 24.9945 16.299V19.0779C25.2971 19.1228 25.5838 19.2382 25.8296 19.4142C26.0753 19.5901 26.2727 19.8212 26.4045 20.0874C26.5363 20.3535 26.5986 20.6466 26.586 20.9413C26.5733 21.2359 26.4861 21.523 26.3319 21.7778C26.1776 22.0325 25.9611 22.2471 25.7011 22.4029C25.4411 22.5587 25.1455 22.651 24.84 22.6717C24.5345 22.6924 24.2284 22.6409 23.9483 22.5217C23.6682 22.4025 23.4226 22.2192 23.2329 21.9877L20.7581 23.3638C20.9195 23.7663 20.9262 24.2112 20.777 24.618C20.6278 25.0249 20.3325 25.367 19.9444 25.5827C19.5562 25.7983 19.1008 25.8734 18.6603 25.7942C18.2198 25.715 17.8232 25.4869 17.542 25.1509L15.0562 26.5333C15.1666 26.8074 15.206 27.1033 15.1709 27.3954C15.1358 27.6874 15.0274 27.9668 14.8549 28.2095C14.6824 28.4521 14.4512 28.6506 14.1811 28.7878C13.9111 28.925 13.6104 28.9968 13.305 28.9969C12.9997 28.9971 12.6989 28.9255 12.4287 28.7886C12.1585 28.6516 11.9271 28.4533 11.7544 28.2109C11.5817 27.9684 11.473 27.6891 11.4376 27.397C11.4023 27.105 11.4414 26.8091 11.5515 26.5349L9.05692 25.1494C8.76127 25.5028 8.33799 25.7358 7.87168 25.8017C7.40537 25.8677 6.93038 25.7617 6.54167 25.5051C6.15296 25.2485 5.87917 24.86 5.77501 24.4174C5.67085 23.9748 5.74401 23.5107 5.97986 23.1178C6.21571 22.7249 6.59688 22.4322 7.04717 22.2981C7.49746 22.1641 7.98369 22.1986 8.40868 22.3948C8.83367 22.591 9.16611 22.9344 9.33953 23.3564C9.51295 23.7784 9.51459 24.2478 9.34412 24.6709L11.8387 26.0564C12.0147 25.8451 12.2378 25.6746 12.4914 25.5575C12.745 25.4403 13.0227 25.3795 13.304 25.3795C13.5853 25.3795 13.863 25.4403 14.1166 25.5575C14.3702 25.6746 14.5933 25.8451 14.7693 26.0564L17.2551 24.6744C17.1444 24.4001 17.1049 24.1039 17.1399 23.8116C17.1748 23.5192 17.2833 23.2395 17.4558 22.9966C17.6284 22.7537 17.8598 22.555 18.1301 22.4176C18.4003 22.2802 18.7013 22.2083 19.0069 22.2081L19.0063 22.2085Z" fill="#6858A3"/>
<path fill-rule="evenodd" clip-rule="evenodd" d="M36.6139 20.2634V9.89343C36.6139 9.58668 36.7404 9.29249 36.9657 9.07558C37.191 8.85867 37.4965 8.73682 37.8151 8.73682H38.5201L48.3027 16.7786L48.1907 8.73682H50.6964V19.0645C50.6964 19.3795 50.5677 19.6819 50.338 19.9062C50.1084 20.1306 49.7962 20.2589 49.4691 20.2634H48.7902L39.0072 12.1991L39.1195 20.2634H36.6139ZM104.25 13.2717H97.0588V10.7033H106V8.73744H95.0197C94.8409 8.80565 94.6807 8.9125 94.5515 9.04976C94.4223 9.18702 94.3276 9.35102 94.2747 9.52911V18.9805C94.3275 19.1586 94.4222 19.3227 94.5514 19.46C94.6806 19.5973 94.8408 19.7042 95.0197 19.7725H106V17.8066H97.0588V15.2379H104.25V13.2711V13.2717ZM84.2205 10.7923H76.6729V8.73744H87.3152C87.5151 8.73787 87.711 8.79232 87.8804 8.8946C88.0498 8.99688 88.186 9.1429 88.2735 9.31603C88.361 9.48916 88.3963 9.68245 88.3753 9.87393C88.3543 10.0654 88.278 10.2474 88.155 10.3992L80.2033 18.0976H88.6948V20.2644H77.2209C76.3639 20.2644 75.8373 19.1583 76.3811 18.4911L84.2205 10.7926V10.7923ZM56.3072 11.4623C56.3072 10.4277 56.507 9.71419 56.9066 9.32186C57.3356 8.9312 58.1256 8.7364 59.2765 8.73744H68.0924C69.2564 8.73744 70.0364 8.93225 70.4323 9.32186C70.8537 9.70144 71.0637 10.4149 71.0624 11.4623V17.5382C71.0624 18.5881 70.8524 19.3041 70.4323 19.6862C70.0338 20.0698 69.2538 20.2622 68.0924 20.2634H59.2765C58.1284 20.2634 57.3384 20.071 56.9066 19.6862C56.5081 19.2918 56.3083 18.5758 56.3072 17.5382V11.4617V11.4623ZM59.0912 18.0973H68.2783V10.792H59.0912V18.0973Z" fill="#0D0F2E"/>
</g>
<defs>
<clipPath id="clip0">
<rect width="106" height="29" fill="white"/>
</clipPath>
</defs>
</svg>
